#!OML:ASF H:\Dans Jumps\Project 1\Capture day 1\Session 1\subject.ASF
:FULLY-SPECIFIED
:DEGREES
671
root 0.578217 17.7212 2.37661 5.80976 -0.514568 -1.67191
lowerback -0.409594 -0.208779 -0.339751
upperback 3.15185 -0.31959 1.61845
thorax 3.48007 -0.195107 1.84495
lowerneck -12.1751 0.146023 -1.83981
upperneck 37.3012 0.274877 1.2112
head 15.0014 0.018498 0.878892
rclavicle 3.18055e-015 -1.98785e-015
rhumerus -24.7617 -11.4324 -82.1529
rradius 28.2193
rwrist 28.4162
rhand -18.5873 -26.3164
rfingers 7.12502
rthumb 7.70352 -56.1561
lclavicle 3.18055e-015 -1.98785e-015
lhumerus -21.1847 -2.12636 87.6521
lradius 21.0882
lwrist 6.09519
lhand -24.1967 -2.46914
lfingers 7.12502
lthumb 2.28736 27.4983
rfemur -15.5029 -2.66006 19.8607
rtibia 22.0146
rfoot -10.9502 -2.53078
rtoes 13.1666
lfemur -14.1334 7.93025 -17.6842
ltibia 19.4417
lfoot -8.56106 4.27322
ltoes -1.54435
672
root 0.578322 17.7211 2.37445 5.79842 -0.509094 -1.6729
lowerback -0.40995 -0.21194 -0.328292
upperback 3.14067 -0.323947 1.61893
thorax 3.46877 -0.196836 1.83883
lowerneck -12.1663 0.149932 -1.83904
upperneck 37.2909 0.280656 1.21038
head 14.9942 0.0210267 0.879167
rclavicle 2.98177e-015 -2.96189e-014
rhumerus -24.6401 -11.1414 -82.2792
rradius 28.4775
rwrist 28.1568
rhand -18.6034 -26.3021
rfingers 7.12502
rthumb 7.68793 -56.1424
lclavicle 2.98177e-015 -2.96189e-014
lhumerus -21.0684 -2.2865 87.676
lradius 21.3137
lwrist 6.3201
lhand -24.3024 -2.69094
lfingers 7.12502
lthumb 2.18533 27.2776
rfemur -15.4952 -2.67246 19.8615
rtibia 22.0102
rfoot -10.9436 -2.52225
rtoes 13.174
lfemur -14.1303 7.92792 -17.6824
ltibia 19.4436
lfoot -8.55783 4.26784
ltoes -1.54135
673
root 0.578377 17.721 2.3722 5.78821 -0.500929 -1.67525
lowerback -0.4114 -0.216183 -0.315368
upperback 3.12962 -0.329791 1.61948
thorax 3.45827 -0.199273 1.83191
lowerneck -12.1532 0.153593 -1.83575
upperneck 37.2769 0.285639 1.20843
head 14.9842 0.0234373 0.878326
rclavicle -8.94531e-016 4.77083e-015
rhumerus -24.5206 -10.8561 -82.4012
rradius 28.7329
rwrist 27.8963
rhand -18.6265 -26.2848
rfingers 7.12502
rthumb 7.66563 -56.1259
lclavicle -8.94531e-016 4.77083e-015
lhumerus -20.9512 -2.45611 87.7011
lradius 21.525
lwrist 6.52823
lhand -24.4524 -3.00153
lfingers 7.12502
lthumb 2.04039 26.9685
rfemur -15.4891 -2.68615 19.8645
rtibia 22.0071
rfoot -10.9379 -2.51583
rtoes 13.1725
lfemur -14.1298 7.92589 -17.6788
ltibia 19.446
lfoot -8.55502 4.2594
ltoes -1.53942
674
root 0.578443 17.7209 2.37005 5.77864 -0.501372 -1.67853
lowerback -0.413002 -0.218955 -0.30507
upperback 3.11584 -0.333669 1.62303
thorax 3.445 -0.200828 1.82963
lowerneck -12.1386 0.154382 -1.84594
upperneck 37.2702 0.287896 1.21233
head 14.9774 0.0235155 0.88198
rclavicle 1.68967e-015 -1.09332e-014
rhumerus -24.4136 -10.5719 -82.5134
rradius 28.9914
rwrist 27.6447
rhand -18.6411 -26.2834
rfingers 7.12502
rthumb 7.65154 -56.1249
lclavicle 1.68967e-015 -1.09332e-014
lhumerus -20.8451 -2.61312 87.7294
lradius 21.7486
lwrist 6.74729
lhand -24.5811 -3.21918
lfingers 7.12502
lthumb 1.91618 26.752
rfemur -15.4852 -2.69662 19.8681
rtibia 22.0053
rfoot -10.9324 -2.50503
rtoes 13.1685
lfemur -14.129 7.9288 -17.6747
ltibia 19.4494
lfoot -8.55312 4.2546
ltoes -1.53275
675
root 0.578455 17.7208 2.36785 5.77011 -0.500286 -1.67647
lowerback -0.414818 -0.221761 -0.299785
upperback 3.10099 -0.337393 1.62428
thorax 3.43074 -0.202402 1.8278
lowerneck -12.1235 0.153998 -1.85328
upperneck 37.2661 0.288081 1.21482
head 14.9719 0.0229077 0.884232
rclavicle 7.95139e-016 6.16232e-015
rhumerus -24.3136 -10.3034 -82.6194
rradius 29.2449
rwrist 27.4045
rhand -18.6639 -26.2809
rfingers 7.12502
rthumb 7.62958 -56.1232
lclavicle 7.95139e-016 6.16232e-015
lhumerus -20.7453 -2.77081 87.7571
lradius 21.9723
lwrist 6.95882
lhand -24.6927 -3.39068
lfingers 7.12502
lthumb 1.80835 26.5814
rfemur -15.4833 -2.70734 19.8661
rtibia 22.0054
rfoot -10.9276 -2.49611
rtoes 13.1596
lfemur -14.1301 7.93135 -17.6765
ltibia 19.4539
lfoot -8.55254 4.24799
ltoes -1.52424
676
root 0.578452 17.7206 2.36572 5.76204 -0.499321 -1.67472
lowerback -0.416888 -0.224299 -0.294383
upperback 3.08643 -0.340769 1.62557
thorax 3.41694 -0.203805 1.82594
lowerneck -12.1135 0.153995 -1.86025
upperneck 37.2677 0.289037 1.21683
head 14.9703 0.0225782 0.886433
rclavicle -1.98785e-015 -5.96354e-016
rhumerus -24.2184 -10.047 -82.7185
rradius 29.4912
rwrist 27.1755
rhand -18.6841 -26.2822
rfingers 7.12502
rthumb 7.61011 -56.1253
lclavicle -1.98785e-015 -5.96354e-016
lhumerus -20.6511 -2.92658 87.7853
lradius 22.1914
lwrist 7.15956
lhand -24.7813 -3.531
lfingers 7.12502
lthumb 1.72283 26.4418
rfemur -15.4824 -2.7166 19.8643
rtibia 22.0065
rfoot -10.9226 -2.48742
rtoes 13.1561
lfemur -14.1318 7.93434 -17.6781
ltibia 19.4591
lfoot -8.55291 4.2412
ltoes -1.51693
677
root 0.578348 17.7205 2.36357 5.75394 -0.498116 -1.67356
lowerback -0.418492 -0.226544 -0.28855
upperback 3.07261 -0.343746 1.62612
thorax 3.4036 -0.204993 1.82311
lowerneck -12.1098 0.155319 -1.86264
upperneck 37.2745 0.291603 1.21674
head 14.9726 0.0232618 0.887288
rclavicle 2.38542e-015 -3.97569e-015
rhumerus -24.1263 -9.80863 -82.8123
rradius 29.7285
rwrist 26.9627
rhand -18.7071 -26.2887
rfingers 7.12502
rthumb 7.58783 -56.1326
lclavicle 2.38542e-015 -3.97569e-015
lhumerus -20.561 -3.07826 87.8118
lradius 22.4022
lwrist 7.34647
lhand -24.8322 -3.64266
lfingers 7.12502
lthumb 1.67361 26.3305
rfemur -15.482 -2.72207 19.8632
rtibia 22.0082
rfoot -10.9175 -2.48228
rtoes 13.1592
lfemur -14.1341 7.9379 -17.6789
ltibia 19.4651
lfoot -8.55206 4.23477
ltoes -1.51362
678
root 0.578271 17.7203 2.36155 5.74411 -0.496152 -1.67469
lowerback -0.418263 -0.229685 -0.280908
upperback 3.05868 -0.347993 1.62821
thorax 3.38916 -0.206783 1.8208
lowerneck -12.1101 0.158478 -1.86327
upperneck 37.287 0.297472 1.21404
head 14.9787 0.0251971 0.887342
rclavicle 9.93923e-016 -1.5704e-014
rhumerus -24.0402 -9.58244 -82.8982
rradius 29.9556
rwrist 26.7628
rhand -18.7331 -26.2943
rfingers 7.12502
rthumb 7.56276 -56.1391
lclavicle 9.93923e-016 -1.5704e-014
lhumerus -20.4751 -3.22612 87.8397
lradius 22.603
lwrist 7.52423
lhand -24.8647 -3.7403
lfingers 7.12502
lthumb 1.64225 26.2331
rfemur -15.4787 -2.72813 19.8644
rtibia 22.0088
rfoot -10.9121 -2.47638
rtoes 13.18
lfemur -14.1346 7.9416 -17.677
ltibia 19.4728
lfoot -8.55207 4.22835
ltoes -1.50822
679
root 0.578121 17.72 2.35955 5.73416 -0.494048 -1.68078
lowerback -0.418108 -0.233236 -0.270004
upperback 3.045 -0.352923 1.63242
thorax 3.37504 -0.208861 1.81883
lowerneck -12.1121 0.163252 -1.86184
upperneck 37.3004 0.305535 1.21044
head 14.9855 0.0282203 0.887014
rclavicle 4.07509e-015 -5.96354e-015
rhumerus -23.9593 -9.36527 -82.9772
rradius 30.1737
rwrist 26.5718
rhand -18.7621 -26.2957
rfingers 7.12502
rthumb 7.53478 -56.1415
lclavicle 4.07509e-015 -5.96354e-015
lhumerus -20.391 -3.37911 87.8701
lradius 22.7906
lwrist 7.70076
lhand -24.8884 -3.83754
lfingers 7.12502
lthumb 1.61936 26.1361
rfemur -15.4748 -2.72994 19.8712
rtibia 22.0079
rfoot -10.9059 -2.4737
rtoes 13.2026
lfemur -14.1363 7.94482 -17.6693
ltibia 19.4822
lfoot -8.55099 4.22369
ltoes -1.5142
